<?xml version="1.0" encoding="UTF-8"?>
<svg width="77px" height="88px" viewBox="0 0 77 88" version="1.1" xmlns="http://www.w3.org/2000/svg" xmlns:xlink="http://www.w3.org/1999/xlink">
    <title>logo copy</title>
    <defs>
        <polygon id="path-1" points="0 87 76.3012019 87 76.3012019 0 0 0"></polygon>
    </defs>
    <g id="Symbols" stroke="none" fill="none">
        <g id="footer-desktop" transform="translate(-270.000000, -35.000000)">
            <g id="logo-copy" transform="translate(270.000000, 35.535288)">
                <path d="M38.8431423,12.0841321 C33.3992326,12.0841321 28.2318167,13.2549572 23.5651057,15.3432388 L26.1008043,11.5286311 C26.1008043,11.5286311 20.6106449,2.64614527 13.9742933,9.52581128 C7.33794175,16.40598 7.33794175,19.2297348 9.64842367,20.6418635 C10.5050514,21.1651907 11.6261077,21.9494274 12.6984006,22.7291396 C5.72271582,29.5323928 1.38528372,39.028192 1.38528372,49.5419906 C1.38528372,70.2297521 18.1558835,86.9998492 38.8431423,86.9998492 C59.530401,86.9998492 76.3010008,70.2297521 76.3010008,49.5419906 C76.3010008,28.8547319 59.530401,12.0841321 38.8431423,12.0841321" id="Fill-1" fill="#FFF9BF"></path>
                <path d="M13.975902,54.8529822 L13.975902,45.6432284 L16.4824431,45.6432284 L16.4824431,48.6353929 L16.6955946,48.6353929 C17.2787449,46.0705368 18.0559436,45.5457015 19.2609534,45.5457015 L19.5329227,45.5457015 L19.5329227,48.5770779 L18.9889842,48.5770779 C17.1430117,48.5770779 16.6181764,49.1210164 16.6181764,50.7533347 L16.6181764,54.8529822 L13.975902,54.8529822 Z" id="Fill-3" fill="#4F00C5"></path>
                <path d="M27.4416983,50.2283988 C27.4416983,49.7427753 27.3833832,49.2963637 27.2667531,48.9268676 L23.672335,52.6962308 C24.0217225,52.9294909 24.4882428,53.0657269 25.0904964,53.0657269 C26.7615237,53.0657269 27.4416983,52.0356622 27.4416983,50.2283988 M22.7201913,50.2283988 C22.7201913,50.7532341 22.7785063,51.2001485 22.8951364,51.5887478 L26.5287663,47.8193846 C26.1592702,47.5665185 25.6927499,47.4307853 25.0904964,47.4307853 C23.4390749,47.4307853 22.7201913,48.4407414 22.7201913,50.2283988 M22.1566468,54.2893372 L21.7293384,54.8528817 L19.8446568,54.8528817 L19.8446568,54.7367543 L21.2045031,53.3376962 C20.6409586,52.5408916 20.3498862,51.4917237 20.3498862,50.2480047 C20.3498862,47.1784219 22.1762527,45.3902618 25.1101023,45.3902618 C26.2759003,45.3902618 27.2471472,45.6818369 28.0243459,46.2257755 L28.4908662,45.6431278 L30.3172328,45.6431278 L30.3172328,45.7592552 L28.9769924,47.1784219 C29.5209309,47.9556206 29.8316093,49.0042858 29.8316093,50.2480047 C29.8316093,53.2788784 28.0243459,55.1248509 25.1101023,55.1248509 C23.9252011,55.1248509 22.9338455,54.8332757 22.1566468,54.2893372" id="Fill-5" fill="#4F00C5"></path>
                <path d="M31.2513793,54.8529822 L31.2513793,45.6432284 L33.7574177,45.6432284 L33.7574177,48.6353929 L33.9715746,48.6353929 C34.5542222,46.0705368 35.3314209,45.5457015 36.5364307,45.5457015 L36.8084,45.5457015 L36.8084,48.5770779 L36.2644615,48.5770779 C34.418489,48.5770779 33.8941564,49.1210164 33.8941564,50.7533347 L33.8941564,54.8529822 L31.2513793,54.8529822 Z" id="Fill-7" fill="#4F00C5"></path>
                <mask id="mask-2" fill="white">
                    <use xlink:href="#path-1"></use>
                </mask>
                <g id="Clip-10"></g>
                <polygon id="Fill-9" fill="#4F00C5" mask="url(#mask-2)" points="37.4191494 50.6757656 40.9406738 50.6757656 40.9406738 49.6457009 37.4191494 49.6457009"></polygon>
                <polygon id="Fill-11" fill="#4F00C5" mask="url(#mask-2)" points="14.0147117 69.4315902 16.6574887 69.4315902 16.6574887 56.9577025 14.0147117 56.9577025"></polygon>
                <path d="M20.7380331,64.0884248 L24.5848145,64.0884248 C24.5466081,62.6506576 23.9438518,61.9508772 22.7589507,61.9508772 C21.5539408,61.9508772 20.874269,62.5727366 20.7380331,64.0884248 M18.1148619,65.0209627 C18.1148619,61.8347498 19.844707,59.9691714 22.8363689,59.9691714 C25.6731943,59.9691714 27.0139374,61.6401988 27.0139374,64.185449 C27.0139374,64.5740483 26.9943314,64.9430417 26.9556223,65.4291679 L20.7184271,65.4291679 C20.874269,66.9056443 21.5539408,67.5662129 22.8172657,67.5662129 C24.0604819,67.5662129 24.449584,66.9835652 24.6823414,66.2837848 L26.8973073,66.8860384 C26.489102,68.4796475 25.4203282,69.6846573 22.7981625,69.6846573 C20.0191494,69.6846573 18.1148619,68.1493632 18.1148619,65.0209627" id="Fill-12" fill="#4F00C5" mask="url(#mask-2)"></path>
                <path d="M30.2994366,63.5248301 C30.2994366,64.2633197 30.746351,64.8268641 32.0674882,64.8268641 C33.4082312,64.8268641 33.8742488,64.2633197 33.8742488,63.5248301 C33.8742488,62.7672374 33.3303103,62.2232989 32.0674882,62.2232989 C30.7654542,62.2232989 30.2994366,62.7863406 30.2994366,63.5248301 M34.9621259,70.0339946 C34.9621259,69.5875829 34.6514475,69.2758991 33.9129579,69.2758991 L30.7850601,69.2758991 C29.9686496,69.2758991 29.4830261,69.6650012 29.4830261,70.1119155 C29.4830261,70.733775 29.9686496,71.0057443 32.1836155,71.0057443 C34.4377933,71.0057443 34.9621259,70.67546 34.9621259,70.0339946 M32.0086704,72.8517167 C28.4916705,72.8517167 27.5013204,72.1323304 27.5013204,70.9861383 C27.5013204,70.1506246 28.4142523,69.5875829 29.6579712,69.3347169 L29.6579712,69.2180868 C28.6666156,69.0823535 28.2393072,68.5962273 28.2393072,67.9552646 C28.2393072,67.4304293 28.6475124,66.9644118 29.4051052,66.6341275 L30.0852797,66.2837345 C28.7058275,65.8373229 27.947732,64.8655732 27.947732,63.427806 C27.947732,61.3681792 29.5021293,60.2219872 32.1258032,60.2219872 L36.7884924,60.2219872 L36.7884924,62.2036929 L35.7780336,62.2036929 C35.331622,62.2036929 34.7484716,62.184087 34.0099821,62.1066688 L33.9908789,62.320323 C35.137071,62.5339772 36.1088206,62.9612857 36.1088206,64.0300595 C36.1088206,65.5653536 34.6514475,66.5557038 32.0674882,66.5557038 C31.5039437,66.5557038 30.9791084,66.4978915 30.532194,66.4008673 L30.3768548,66.6532307 C30.2798307,66.8281758 30.2024125,67.0031209 30.2024125,67.1584601 C30.2024125,67.4887444 30.4351699,67.6244776 31.0183202,67.6244776 C32.0282763,67.6244776 33.0774442,67.5661626 34.029588,67.5661626 C36.0701115,67.5661626 37.0026494,68.4599913 37.0026494,69.9565763 C37.0026494,71.8799671 35.7393245,72.8517167 32.0086704,72.8517167" id="Fill-13" fill="#4F00C5" mask="url(#mask-2)"></path>
                <path d="M40.0930949,63.5248301 C40.0930949,64.2633197 40.5400092,64.8268641 41.8611464,64.8268641 C43.2023922,64.8268641 43.6679071,64.2633197 43.6679071,63.5248301 C43.6679071,62.7672374 43.1239686,62.2232989 41.8611464,62.2232989 C40.5591124,62.2232989 40.0930949,62.7863406 40.0930949,63.5248301 M44.7562868,70.0339946 C44.7562868,69.5875829 44.4451057,69.2758991 43.7066162,69.2758991 L40.5787184,69.2758991 C39.7628106,69.2758991 39.2766844,69.6650012 39.2766844,70.1119155 C39.2766844,70.733775 39.7628106,71.0057443 41.9777765,71.0057443 C44.2314515,71.0057443 44.7562868,70.67546 44.7562868,70.0339946 M41.8028314,72.8517167 C38.2858315,72.8517167 37.2954813,72.1323304 37.2954813,70.9861383 C37.2954813,70.1506246 38.2084133,69.5875829 39.4516295,69.3347169 L39.4516295,69.2180868 C38.4607766,69.0823535 38.0334682,68.5962273 38.0334682,67.9552646 C38.0334682,67.4304293 38.4411707,66.9644118 39.1992662,66.6341275 L39.8794407,66.2837345 C38.4999884,65.8373229 37.741893,64.8655732 37.741893,63.427806 C37.741893,61.3681792 39.2962903,60.2219872 41.9194615,60.2219872 L46.5826534,60.2219872 L46.5826534,62.2036929 L45.5721946,62.2036929 C45.125783,62.2036929 44.5426326,62.184087 43.8041431,62.1066688 L43.7845372,62.320323 C44.9312319,62.5339772 45.9024789,62.9612857 45.9024789,64.0300595 C45.9024789,65.5653536 44.4451057,66.5557038 41.8611464,66.5557038 C41.297602,66.5557038 40.7732694,66.4978915 40.326355,66.4008673 L40.1705131,66.6532307 C40.073489,66.8281758 39.9960707,67.0031209 39.9960707,67.1584601 C39.9960707,67.4887444 40.2293309,67.6244776 40.8119785,67.6244776 C41.8219346,67.6244776 42.8711025,67.5661626 43.823749,67.5661626 C45.8637698,67.5661626 46.7963076,68.4599913 46.7963076,69.9565763 C46.7963076,71.8799671 45.5329828,72.8517167 41.8028314,72.8517167" id="Fill-14" fill="#4F00C5" mask="url(#mask-2)"></path>
                <path d="M50.0619496,64.0884248 L53.9092338,64.0884248 C53.870022,62.6506576 53.2682711,61.9508772 52.0828672,61.9508772 C50.8783601,61.9508772 50.1981856,62.5727366 50.0619496,64.0884248 M47.4387785,65.0209627 C47.4387785,61.8347498 49.1681209,59.9691714 52.1607882,59.9691714 C54.9971108,59.9691714 56.3373512,61.6401988 56.3373512,64.185449 C56.3373512,64.5740483 56.318248,64.9430417 56.2795389,65.4291679 L50.0428464,65.4291679 C50.1981856,66.9056443 50.8783601,67.5662129 52.1411822,67.5662129 C53.3843985,67.5662129 53.7729978,66.9835652 54.0067607,66.2837848 L56.2217266,66.8860384 C55.8130186,68.4796475 54.7447475,69.6846573 52.1215763,69.6846573 C49.3425633,69.6846573 47.4387785,68.1493632 47.4387785,65.0209627" id="Fill-15" fill="#4F00C5" mask="url(#mask-2)"></path>
                <path d="M57.796132,69.431741 L57.796132,60.2219872 L60.3026731,60.2219872 L60.3026731,63.2141517 L60.5163273,63.2141517 C61.0994776,60.6492956 61.8761736,60.1244603 63.0811834,60.1244603 L63.3531527,60.1244603 L63.3531527,63.1558367 L62.8092141,63.1558367 C60.9632417,63.1558367 60.438909,63.6997752 60.438909,65.3320935 L60.438909,69.431741 L57.796132,69.431741 Z" id="Fill-16" fill="#4F00C5" mask="url(#mask-2)"></path>
                <path d="M15.4408662,39.3394736 L15.4408662,40.7370236 L16.8087559,40.7370236 C17.3738085,40.7370236 17.631199,40.4595244 17.631199,40.0332214 C17.631199,39.5772582 17.433129,39.3394736 16.7695441,39.3394736 L15.4408662,39.3394736 Z M15.4408662,36.9309621 L15.4408662,38.3682266 L16.5810257,38.3682266 C17.1355212,38.3682266 17.4426806,38.1701566 17.4426806,37.6252126 C17.4426806,37.1496435 17.2149503,36.9309621 16.6202375,36.9309621 L15.4408662,36.9309621 Z M14.013656,35.8410742 L16.6101832,35.8410742 C18.1364284,35.8410742 18.8010187,36.3266977 18.8010187,37.3572651 C18.8010187,38.1404964 18.3551098,38.576351 17.5517699,38.7548151 L17.5517699,38.8442985 C18.6421605,38.9528851 19.0483549,39.3198677 19.0483549,40.1624194 C19.0483549,41.1331636 18.4239819,41.7876996 16.8580221,41.7876996 L14.013656,41.7876996 L14.013656,35.8410742 Z" id="Fill-17" fill="#4F00C5" mask="url(#mask-2)"></path>
                <polygon id="Fill-18" fill="#4F00C5" mask="url(#mask-2)" points="19.7431584 41.7877499 21.0914423 41.7877499 21.0914423 35.4248758 19.7431584 35.4248758"></polygon>
                <path d="M22.1024038,41.7877499 L23.4506876,41.7877499 L23.4506876,37.0898706 L22.1024038,37.0898706 L22.1024038,41.7877499 Z M22.0722408,36.425783 L23.4803479,36.425783 L23.4803479,35.454536 L22.0722408,35.454536 L22.0722408,36.425783 Z" id="Fill-19" fill="#4F00C5" mask="url(#mask-2)"></path>
                <path d="M37.7910083,32.9186363 C37.6603022,32.9819785 37.5300988,33.0523587 37.4009008,33.1343014 C37.2073553,33.2569641 37.0193395,33.3620317 36.8353455,33.4540287 L35.9741933,34.7304241 C35.8771692,34.8747036 35.9153756,35.0722709 36.059655,35.169295 L36.1059049,35.2004634 C36.2501843,35.2979903 36.4477516,35.2592812 36.5447758,35.1150017 L37.7895002,33.269532 C37.8628967,33.1609453 37.858875,33.0221958 37.7910083,32.9186363" id="Fill-20" fill="#4F00C5" mask="url(#mask-2)"></path>
                <path d="M35.4449844,33.9225598 L35.2358546,34.2322328 C35.1388305,34.3765122 35.1770369,34.5740795 35.3213163,34.6716064 L35.3675662,34.702272 C35.5118456,34.7997989 35.7094129,34.7615925 35.8064371,34.6173131 L36.4815844,33.6164059 C36.1105801,33.7707396 35.7637062,33.8677638 35.4449844,33.9225598" id="Fill-21" fill="#4F00C5" mask="url(#mask-2)"></path>
                <path d="M39.8963319,34.3092991 C39.7394846,34.203226 39.5243222,34.2454542 39.4187519,34.4023015 L38.2051959,36.2015214 C38.0991228,36.3583688 38.1408483,36.5735311 38.2976956,36.6791015 C38.4545429,36.7851745 38.6697053,36.7434491 38.7752756,36.586099 L39.9893343,34.7868791 C40.0949047,34.6300318 40.0531792,34.4148694 39.8963319,34.3092991" id="Fill-22" fill="#4F00C5" mask="url(#mask-2)"></path>
                <path d="M39.8356541,35.3767659 L39.2650717,36.2228366 C39.1589986,36.3796839 39.200724,36.5948463 39.3575714,36.7009193 C39.5144187,36.8064897 39.7295811,36.7647642 39.8351514,36.6079169 L40.4062366,35.7613435 C40.5118069,35.6044961 40.4700815,35.3898365 40.3132341,35.2837634 C40.1563868,35.1781931 39.9412244,35.2199185 39.8356541,35.3767659" id="Fill-23" fill="#4F00C5" mask="url(#mask-2)"></path>
                <path d="M39.1579932,33.8112585 C39.0011458,33.7056882 38.7859835,33.7474136 38.6804132,33.9042609 L37.4668572,35.7034809 C37.3607841,35.8603282 37.4025095,36.0754906 37.5593569,36.1810609 C37.7162042,36.2871339 37.9313666,36.2454085 38.0369369,36.0880585 L39.2509956,34.2888386 C39.3565659,34.1319912 39.3148405,33.9173316 39.1579932,33.8112585" id="Fill-24" fill="#4F00C5" mask="url(#mask-2)"></path>
                <path d="M38.4196042,33.313218 C38.2627568,33.2071449 38.0475945,33.249373 37.9420242,33.4062204 L36.7284682,35.2054403 C36.6223951,35.3622876 36.6641205,35.57745 36.8209679,35.6830203 C36.9778152,35.7890934 37.1929776,35.747368 37.2985479,35.5900179 L38.5126066,33.790798 C38.6181769,33.6339507 38.5764515,33.4187883 38.4196042,33.313218" id="Fill-25" fill="#4F00C5" mask="url(#mask-2)"></path>
                <path d="M67.7127043,48.9530591 C64.734113,46.9406876 58.9930983,42.4655114 58.9930983,42.4655114 C58.9930983,42.4655114 59.8703375,42.2211915 60.3765723,41.5631365 C60.8828071,40.9050815 61.369436,40.1384398 61.369436,40.1384398 C61.369436,40.1384398 62.2305882,40.9644019 66.724365,43.2019901 C73.6894927,46.6702265 70.7395562,50.998107 67.7127043,48.9530591 L67.7127043,48.9530591 Z M57.4904808,39.5376944 C57.4764047,39.1636739 57.6221923,38.6252652 57.8343384,38.0486502 C58.6396891,38.0350769 59.3857194,38.7444089 59.3942656,38.7524523 L59.8401745,38.2984999 C59.8014654,38.2607963 59.0368346,37.5338692 58.0801664,37.4288016 C58.6220941,36.1519034 59.3409777,34.8910921 59.3409777,34.8910921 C60.4826453,34.9026546 60.8320328,36.0950965 60.983853,37.4619808 C61.1356732,38.8288651 59.667743,40.3480723 59.3409777,40.6009384 C59.0147151,40.8543072 57.5412551,40.8543072 57.4904808,39.5376944 L57.4904808,39.5376944 Z M54.3007489,38.5252248 C54.3007489,38.5252248 54.5460742,37.433326 54.8291032,36.4228672 C55.2941153,36.4429758 56.1311372,36.9482052 56.6222905,37.3403236 L57.019436,36.8431376 C56.8872218,36.7375673 55.8581625,35.9392546 55.011589,35.8045268 C55.1352571,35.4093921 55.2584225,35.0735779 55.3639928,34.8910921 C55.7691818,34.1938253 57.5920294,31.4379371 57.5920294,31.4379371 C59.1107338,31.8431261 59.0599596,32.3991298 59.3133283,32.9053646 C59.5661944,33.4115994 58.0474899,35.9432763 56.8334312,38.0747914 C55.6198752,40.2058038 54.3007489,38.5252248 54.3007489,38.5252248 L54.3007489,38.5252248 Z M52.0098729,38.0697642 C51.1366555,38.1708101 50.0734115,36.7028799 50.0734115,36.7028799 L51.3015463,35.1610505 L52.8599653,35.602435 L53.0334023,34.9906298 L51.2412204,34.4828869 L51.2010031,34.6266636 L50.9596995,34.4245718 C50.9596995,34.4245718 51.3141142,33.2095077 52.0229435,31.822012 C52.7317728,30.4345164 53.9468369,29.7161354 53.9468369,29.7161354 C56.9842459,29.3109465 56.8324257,31.293155 56.8324257,31.293155 C56.8324257,31.293155 55.8702277,33.0069132 55.2121727,33.6649682 C54.5541176,34.3230232 53.1872333,37.8163955 53.1872333,37.8163955 C53.1872333,37.8163955 52.883593,37.9682156 52.0098729,38.0697642 L52.0098729,38.0697642 Z M50.0482757,34.0701572 L46.9600925,32.9053646 C50.8581509,26.2227632 53.1872333,29.1591263 53.1872333,29.1591263 C53.1872333,29.1591263 52.7820444,29.8171813 52.0229435,30.4893124 C51.2633399,31.1614434 50.0482757,34.0701572 50.0482757,34.0701572 L50.0482757,34.0701572 Z M46.352309,32.3991298 C46.352309,32.3991298 45.694254,32.2473096 44.6310101,31.822012 C43.5677661,31.3962117 43.2133514,31.822012 43.2133514,31.822012 L38.0997261,28.3492511 C38.0997261,28.3492511 38.5049151,28.2477025 39.0619242,27.5388732 C39.6189333,26.8300439 39.8717994,25.3621137 39.8717994,25.3621137 L47.4663273,30.4893124 C47.4663273,30.4893124 47.2637328,30.8804253 46.8585439,31.3358858 C46.4533549,31.7918491 46.352309,32.3991298 46.352309,32.3991298 L46.352309,32.3991298 Z M37.188805,27.792242 L32.4803687,24.8051046 L28.2273928,31.2856142 C28.2273928,31.2856142 23.974417,32.0447151 24.0251913,30.171596 C24.0759656,28.2984768 25.5438958,25.1087449 26.1009049,24.5517358 C26.657914,23.9952294 29.9994661,20.9573177 32.4803687,19.8940737 L38.5556894,23.9444551 C38.5556894,23.9444551 39.5173847,24.5517358 38.5556894,25.8683485 C37.5934913,27.1844586 37.188805,27.792242 37.188805,27.792242 L37.188805,27.792242 Z M23.316362,26.4756293 C23.316362,26.4756293 12.5833792,19.5396591 11.9253242,18.2738206 C11.2667664,17.0084849 11.7227297,15.1856374 14.5072726,12.7555091 C17.2918156,10.3253808 18.7597458,9.07512655 20.4810447,9.67486652 C22.2028464,10.2746065 22.9116757,11.3886248 22.9116757,11.3886248 L18.7094742,17.3121253 C18.7094742,17.3121253 18.2535109,17.6665399 17.7472761,17.3121253 C17.2410413,16.9577106 15.3171478,15.7934208 15.0135075,15.6918722 C14.7098671,15.5908263 13.6968947,16.7551161 13.6968947,16.7551161 L24.3796059,24.3491413 L23.316362,26.4756293 Z M29.1895909,16.2996556 L31.06271,17.2105767 L32.2018641,19.286793 L30.8093413,18.5271894 L28.7336276,21.2132 L27.063103,22.2734277 L26.1009049,21.2132 L29.1895909,16.2996556 Z M70.3514596,44.3461713 C66.7836854,42.7530648 62.4015116,39.9303155 62.4015116,39.9303155 C62.4015116,39.9303155 62.8192685,36.7028799 61.7560245,35.3736993 C60.6927805,34.0445187 59.7436531,33.1713013 59.7436531,33.1713013 C59.7436531,33.1713013 59.5918329,31.5384803 58.7563192,31.31075 L57.9208055,31.0830198 C57.9208055,31.0830198 57.465345,29.602019 55.8702277,29.3360823 C54.2756131,29.0706483 53.7819461,29.0324419 53.7819461,29.0324419 C53.7819461,29.0324419 52.2250352,27.2860072 50.7063308,27.969198 C49.1876263,28.6528915 48.0861759,29.677929 48.0861759,29.677929 L32.7458026,19.0459921 L31.5965942,16.3559598 L28.4511014,14.8603802 L28.6225274,15.7441546 L27.8423125,15.8954721 L27.9941327,16.6761898 L27.2139177,16.8275072 L27.3652352,17.6082249 L26.5850202,17.7595424 L26.7368404,18.5397573 L25.9566254,18.6915775 L26.1079429,19.4717924 L25.327728,19.6236126 L25.4795481,20.4038276 L24.6038172,20.5742482 L25.1517774,22.1216075 L24.772227,23.3748781 L17.7367191,18.5372437 L20.1236138,18.5055726 L19.958723,17.6564856 L20.7389379,17.5046654 L20.5871178,16.7244505 L21.3678354,16.5726303 L21.2160153,15.7924153 L21.9962302,15.6405952 L21.84441,14.8603802 L22.624625,14.70856 L22.4733075,13.9283451 L23.2535225,13.7765249 L23.1017023,12.99631 L24.0241858,12.8168404 L23.5988882,12.1763804 L24.1644435,11.3378505 C24.1644435,11.3378505 20.7303918,6.18702415 16.4185982,9.85684965 C12.8739489,12.87415 8.10267306,16.9954143 11.8237756,19.8055957 C15.5448781,22.6152745 22.8352629,27.5896475 22.8352629,27.5896475 C22.8352629,27.5896475 21.0888282,30.9689033 23.5948665,32.1462637 C26.1009049,33.3231215 28.379213,32.9812747 28.379213,32.9812747 L32.8599191,26.4881972 L36.0873547,28.6146851 L33.2017659,33.0275246 C33.2017659,33.0275246 34.9104969,34.006815 37.3024188,32.4881105 C39.6948434,30.9689033 42.4668184,32.7917508 42.4668184,32.7917508 C42.4668184,32.7917508 40.5298544,36.5887634 40.5680608,38.0315578 C40.6062672,39.4743522 44.5928037,47.6002508 44.5928037,47.6002508 L41.859035,54.8529319 L46.1497145,54.8529319 C46.1497145,54.8529319 47.1752548,53.6378678 48.1243823,49.954469 C49.0735098,46.2715729 49.0735098,46.1197527 49.0735098,46.1197527 C49.0735098,46.1197527 42.8840726,40.7658292 42.9604854,37.8797377 C43.0363955,34.9941489 43.8337028,33.2095077 44.0232266,33.0194811 C44.2132532,32.8294545 44.6777626,32.7535444 45.5655588,33.1335976 C45.8254628,33.2446978 46.3508009,33.4578493 46.9595897,33.7021692 L46.6418733,33.6855796 C46.6277973,33.9495054 46.6182457,34.8357934 47.0842633,35.1540125 C47.4758789,35.4214573 48.0610401,35.5943915 48.0856732,35.6019323 L48.2641373,34.9911326 C48.2596129,34.9896244 47.7503617,34.8383069 47.4432024,34.6286744 C47.3476864,34.5633214 47.2763007,34.1933225 47.2783116,33.829859 C48.6994892,34.3984306 50.4026904,35.0700589 50.4026904,35.0700589 C50.4026904,35.0700589 49.8708171,36.7405836 48.0861759,36.550557 C46.3015347,36.3610332 46.0361008,36.0191864 46.0361008,36.0191864 C46.0361008,36.0191864 46.4156512,36.8164937 46.2256246,37.613801 C46.0361008,38.411611 45.3524073,39.246622 45.3524073,39.246622 C45.3524073,39.246622 49.4535629,39.7784953 50.6686271,41.1453796 C51.8836912,42.512264 52.2250352,44.0309685 52.2250352,44.0309685 C52.2250352,44.0309685 54.2379094,42.9677245 56.6298313,43.4995978 C59.0222559,44.0309685 59.3258962,44.1827886 59.3258962,44.1827886 C59.3258962,44.1827886 57.5030487,47.1824939 55.3011534,47.6002508 C53.0987553,48.0180076 51.0858812,47.6384572 51.0858812,47.6384572 C51.0858812,47.6384572 52.3009453,48.6257911 53.2123691,48.6634947 C54.1237929,48.7017011 54.4656397,48.7394048 54.4656397,48.7394048 L51.7313683,54.8529319 L52.7946123,54.8529319 L54.4656397,51.2836496 C54.4656397,51.2836496 57.3512285,49.5749185 58.4526788,47.8284838 C59.5536265,46.0815463 60.4268439,44.5628418 60.4268439,44.5628418 C60.4268439,44.5628418 66.0120166,48.9952872 67.2999746,50.1444956 C70.1176968,52.6595828 71.6353958,52.4006842 73.3752953,49.9167653 C75.0975997,47.4579822 71.3996221,44.8141997 70.3514596,44.3461713 L70.3514596,44.3461713 Z" id="Fill-26" fill="#4F00C5" mask="url(#mask-2)"></path>
                <path d="M34.8248342,28.618003 L33.3051242,27.5929654 C33.0909673,27.448686 32.7973813,27.5054929 32.6531018,27.7196498 L29.4518075,32.4657899 C29.307528,32.6799468 29.3643349,32.9730302 29.5784919,33.1173096 L31.0982018,34.1423472 C31.3123587,34.2871293 31.6059448,34.2298197 31.7502242,34.0156628 L34.9515185,29.2700254 C35.095798,29.0558685 35.0389911,28.7622824 34.8248342,28.618003" id="Fill-27" fill="#4F00C5" mask="url(#mask-2)"></path>
                <path d="M31.4246152,9.25012192 C31.4246152,9.25012192 35.6459199,9.38937421 37.55624,7.42325263 C38.8607876,6.08049867 38.9145782,4.01685023 37.6768918,2.81435398 C36.4387028,1.61185774 34.3780706,1.72547151 33.0735231,3.06822547 C31.1632029,5.03484976 31.4246152,9.25012192 31.4246152,9.25012192" id="Fill-28" fill="#87FFC7" mask="url(#mask-2)"></path>
                <path d="M27.3965544,6.91309661 C27.3965544,6.91309661 29.8045632,4.72427193 29.8050659,2.61186005 C29.8050659,1.16956836 28.7272432,0.000251357911 27.3975598,-0.000251357911 C26.0678765,-0.000251357911 24.9900537,1.16856293 24.9895509,2.61135733 C24.9890483,4.7232665 27.3965544,6.91309661 27.3965544,6.91309661" id="Fill-29" fill="#CC99CC" mask="url(#mask-2)"></path>
                <path d="M6.67767479,23.3718115 C6.67767479,23.3718115 3.84386571,21.7721698 1.83802959,22.4342465 C0.468631688,22.8866907 -0.304042529,24.2767 0.113211603,25.5395221 C0.529963019,26.8018416 1.9782873,27.4588911 3.3476852,27.0069496 C5.35352132,26.3443702 6.67767479,23.3718115 6.67767479,23.3718115" id="Fill-30" fill="#FFFFFF" mask="url(#mask-2)"></path>
            </g>
        </g>
    </g>
</svg>